<mxfile host="65bd71144e">
    <diagram id="9MTFBuaw8zbxraLN_iM6" name="Page-1">
        <mxGraphModel dx="2748" dy="2727" grid="1" gridSize="10" guides="1" tooltips="1" connect="1" arrows="1" fold="1" page="1" pageScale="1" pageWidth="827" pageHeight="1169" math="0" shadow="0">
            <root>
                <mxCell id="0"/>
                <mxCell id="1" parent="0"/>
                <mxCell id="34" style="edgeStyle=orthogonalEdgeStyle;rounded=0;orthogonalLoop=1;jettySize=auto;html=1;entryX=0;entryY=0.5;entryDx=0;entryDy=0;" parent="1" source="4" target="23" edge="1">
                    <mxGeometry relative="1" as="geometry"/>
                </mxCell>
                <mxCell id="4" value="ADMIN" style="pointerEvents=1;shadow=0;dashed=0;html=1;strokeColor=none;aspect=fixed;labelPosition=center;verticalLabelPosition=bottom;verticalAlign=top;align=center;outlineConnect=0;shape=mxgraph.vvd.administrator;fillColor=#3333FF;gradientColor=#9933FF;" parent="1" vertex="1">
                    <mxGeometry x="34" y="-905" width="21.5" height="50" as="geometry"/>
                </mxCell>
                <mxCell id="36" style="edgeStyle=orthogonalEdgeStyle;rounded=0;orthogonalLoop=1;jettySize=auto;html=1;entryX=0;entryY=0.5;entryDx=0;entryDy=0;" parent="1" source="6" target="24" edge="1">
                    <mxGeometry relative="1" as="geometry"/>
                </mxCell>
                <mxCell id="6" value="Responsable" style="pointerEvents=1;shadow=0;dashed=0;html=1;strokeColor=none;aspect=fixed;labelPosition=center;verticalLabelPosition=bottom;verticalAlign=top;align=center;outlineConnect=0;shape=mxgraph.vvd.administrator;fillColor=#990000;gradientColor=#FF0000;" parent="1" vertex="1">
                    <mxGeometry x="34" y="-785" width="21.5" height="50" as="geometry"/>
                </mxCell>
                <mxCell id="38" style="edgeStyle=orthogonalEdgeStyle;rounded=0;orthogonalLoop=1;jettySize=auto;html=1;entryX=0;entryY=0.5;entryDx=0;entryDy=0;" parent="1" source="7" target="26" edge="1">
                    <mxGeometry relative="1" as="geometry"/>
                </mxCell>
                <mxCell id="7" value="Bibliothécaire" style="pointerEvents=1;shadow=0;dashed=0;html=1;strokeColor=none;aspect=fixed;labelPosition=center;verticalLabelPosition=bottom;verticalAlign=top;align=center;outlineConnect=0;shape=mxgraph.vvd.administrator;fillColor=#66FFFF;gradientColor=#004C99;" parent="1" vertex="1">
                    <mxGeometry x="34" y="-545" width="21.5" height="50" as="geometry"/>
                </mxCell>
                <mxCell id="37" style="edgeStyle=orthogonalEdgeStyle;rounded=0;orthogonalLoop=1;jettySize=auto;html=1;entryX=0;entryY=0.5;entryDx=0;entryDy=0;" parent="1" source="8" target="25" edge="1">
                    <mxGeometry relative="1" as="geometry"/>
                </mxCell>
                <mxCell id="8" value="Gestionnaire" style="pointerEvents=1;shadow=0;dashed=0;html=1;strokeColor=none;aspect=fixed;labelPosition=center;verticalLabelPosition=bottom;verticalAlign=top;align=center;outlineConnect=0;shape=mxgraph.vvd.administrator;fillColor=#FF8000;gradientColor=#FFB366;" parent="1" vertex="1">
                    <mxGeometry x="34" y="-665" width="21.5" height="50" as="geometry"/>
                </mxCell>
                <mxCell id="39" style="edgeStyle=orthogonalEdgeStyle;rounded=0;orthogonalLoop=1;jettySize=auto;html=1;entryX=0;entryY=0.5;entryDx=0;entryDy=0;" parent="1" source="10" target="27" edge="1">
                    <mxGeometry relative="1" as="geometry"/>
                </mxCell>
                <mxCell id="63" style="edgeStyle=orthogonalEdgeStyle;orthogonalLoop=1;jettySize=auto;html=1;entryX=0.55;entryY=0.95;entryDx=0;entryDy=0;entryPerimeter=0;startArrow=none;startFill=0;strokeColor=none;curved=1;dashed=1;" parent="1" source="10" target="62" edge="1">
                    <mxGeometry relative="1" as="geometry"/>
                </mxCell>
                <mxCell id="64" style="edgeStyle=orthogonalEdgeStyle;curved=1;orthogonalLoop=1;jettySize=auto;html=1;entryX=0.55;entryY=0.95;entryDx=0;entryDy=0;entryPerimeter=0;dashed=1;startArrow=none;startFill=0;" parent="1" source="10" target="62" edge="1">
                    <mxGeometry relative="1" as="geometry">
                        <Array as="points">
                            <mxPoint x="104" y="-400"/>
                            <mxPoint x="104" y="-380"/>
                            <mxPoint x="120" y="-380"/>
                            <mxPoint x="120" y="-400"/>
                            <mxPoint x="113" y="-400"/>
                        </Array>
                    </mxGeometry>
                </mxCell>
                <mxCell id="10" value="Adhérent" style="pointerEvents=1;shadow=0;dashed=0;html=1;strokeColor=none;aspect=fixed;labelPosition=center;verticalLabelPosition=bottom;verticalAlign=top;align=center;outlineConnect=0;shape=mxgraph.vvd.administrator;fillColor=#80FF00;gradientColor=#4D9900;" parent="1" vertex="1">
                    <mxGeometry x="34" y="-425" width="21.5" height="50" as="geometry"/>
                </mxCell>
                <mxCell id="82" style="edgeStyle=orthogonalEdgeStyle;rounded=0;orthogonalLoop=1;jettySize=auto;html=1;entryX=0.5;entryY=1;entryDx=0;entryDy=0;fontSize=15;startArrow=none;startFill=0;" parent="1" source="11" target="22" edge="1">
                    <mxGeometry relative="1" as="geometry">
                        <Array as="points">
                            <mxPoint x="271" y="-100"/>
                            <mxPoint x="240" y="-100"/>
                        </Array>
                    </mxGeometry>
                </mxCell>
                <mxCell id="157" style="edgeStyle=orthogonalEdgeStyle;rounded=0;orthogonalLoop=1;jettySize=auto;html=1;entryX=0;entryY=0.5;entryDx=0;entryDy=0;" edge="1" parent="1" source="11" target="149">
                    <mxGeometry relative="1" as="geometry">
                        <Array as="points">
                            <mxPoint x="271" y="-100"/>
                            <mxPoint x="310" y="-100"/>
                            <mxPoint x="310" y="-240"/>
                        </Array>
                    </mxGeometry>
                </mxCell>
                <mxCell id="11" value="Visiteur" style="pointerEvents=1;shadow=0;dashed=0;html=1;strokeColor=none;aspect=fixed;labelPosition=center;verticalLabelPosition=bottom;verticalAlign=top;align=center;outlineConnect=0;shape=mxgraph.vvd.administrator;fillColor=#CCCCCC;gradientColor=#808080;" parent="1" vertex="1">
                    <mxGeometry x="260" y="-80" width="21.5" height="50" as="geometry"/>
                </mxCell>
                <mxCell id="99" style="edgeStyle=orthogonalEdgeStyle;rounded=0;orthogonalLoop=1;jettySize=auto;html=1;entryX=0;entryY=0.5;entryDx=0;entryDy=0;strokeColor=#6600CC;" parent="1" source="13" target="87" edge="1">
                    <mxGeometry relative="1" as="geometry">
                        <Array as="points">
                            <mxPoint x="620" y="-880"/>
                            <mxPoint x="620" y="-1085"/>
                        </Array>
                    </mxGeometry>
                </mxCell>
                <mxCell id="113" style="edgeStyle=orthogonalEdgeStyle;rounded=0;orthogonalLoop=1;jettySize=auto;html=1;entryX=0;entryY=0.5;entryDx=0;entryDy=0;strokeColor=#6600CC;" parent="1" source="13" target="88" edge="1">
                    <mxGeometry relative="1" as="geometry">
                        <Array as="points">
                            <mxPoint x="620" y="-880"/>
                            <mxPoint x="620" y="-1025"/>
                        </Array>
                    </mxGeometry>
                </mxCell>
                <mxCell id="13" value="&lt;b&gt;Gestion des comptes&lt;/b&gt;" style="rounded=0;whiteSpace=wrap;html=1;fillColor=#9933FF;gradientColor=#ffffff;strokeColor=#6600CC;" parent="1" vertex="1">
                    <mxGeometry x="480" y="-905" width="120" height="50" as="geometry"/>
                </mxCell>
                <mxCell id="15" value="" style="endArrow=none;html=1;" parent="1" edge="1">
                    <mxGeometry width="50" height="50" relative="1" as="geometry">
                        <mxPoint x="160" y="-80" as="sourcePoint"/>
                        <mxPoint x="160" y="-1160" as="targetPoint"/>
                    </mxGeometry>
                </mxCell>
                <mxCell id="21" value="Acceder&#10; à son &#10;compte&#10;personnel" style="swimlane;fillColor=none;gradientColor=none;startSize=80;labelBackgroundColor=#ffffff;fontSize=15;" parent="1" vertex="1">
                    <mxGeometry x="200" y="-1020" width="80" height="680" as="geometry"/>
                </mxCell>
                <mxCell id="23" value="Compte admin" style="rounded=0;whiteSpace=wrap;html=1;fillColor=none;gradientColor=none;" parent="21" vertex="1">
                    <mxGeometry y="80" width="80" height="120" as="geometry"/>
                </mxCell>
                <mxCell id="24" value="Compte Responsable" style="rounded=0;whiteSpace=wrap;html=1;fillColor=none;gradientColor=none;" parent="21" vertex="1">
                    <mxGeometry y="200" width="80" height="120" as="geometry"/>
                </mxCell>
                <mxCell id="25" value="Compte Gestionnaire" style="rounded=0;whiteSpace=wrap;html=1;fillColor=none;gradientColor=none;" parent="21" vertex="1">
                    <mxGeometry y="320" width="80" height="120" as="geometry"/>
                </mxCell>
                <mxCell id="26" value="Compte Bibliothécaire" style="rounded=0;whiteSpace=wrap;html=1;fillColor=none;gradientColor=none;" parent="21" vertex="1">
                    <mxGeometry y="440" width="80" height="120" as="geometry"/>
                </mxCell>
                <mxCell id="27" value="Compte adhérent" style="rounded=0;whiteSpace=wrap;html=1;fillColor=none;gradientColor=none;" parent="21" vertex="1">
                    <mxGeometry y="560" width="80" height="120" as="geometry"/>
                </mxCell>
                <mxCell id="84" style="edgeStyle=orthogonalEdgeStyle;rounded=0;orthogonalLoop=1;jettySize=auto;html=1;" parent="1" source="22" edge="1">
                    <mxGeometry relative="1" as="geometry">
                        <mxPoint x="45" y="-340" as="targetPoint"/>
                    </mxGeometry>
                </mxCell>
                <mxCell id="22" value="Créer un compte Adhérent" style="rounded=0;whiteSpace=wrap;html=1;fillColor=none;gradientColor=none;" parent="1" vertex="1">
                    <mxGeometry x="200" y="-280" width="80" height="80" as="geometry"/>
                </mxCell>
                <mxCell id="41" style="edgeStyle=orthogonalEdgeStyle;rounded=0;orthogonalLoop=1;jettySize=auto;html=1;entryX=0;entryY=0.5;entryDx=0;entryDy=0;strokeColor=#6600CC;" parent="1" source="23" target="13" edge="1">
                    <mxGeometry relative="1" as="geometry"/>
                </mxCell>
                <mxCell id="42" value="" style="endArrow=none;html=1;" parent="1" edge="1">
                    <mxGeometry width="50" height="50" relative="1" as="geometry">
                        <mxPoint x="120" y="-120" as="sourcePoint"/>
                        <mxPoint x="820" y="-120" as="targetPoint"/>
                    </mxGeometry>
                </mxCell>
                <mxCell id="43" value="" style="endArrow=none;html=1;" parent="1" edge="1">
                    <mxGeometry width="50" height="50" relative="1" as="geometry">
                        <mxPoint x="120" y="-1121.1799999999998" as="sourcePoint"/>
                        <mxPoint x="820" y="-1121" as="targetPoint"/>
                    </mxGeometry>
                </mxCell>
                <mxCell id="66" style="edgeStyle=orthogonalEdgeStyle;curved=1;orthogonalLoop=1;jettySize=auto;html=1;dashed=1;startArrow=none;startFill=0;exitX=0.529;exitY=0.116;exitDx=0;exitDy=0;exitPerimeter=0;" parent="1" source="62" target="7" edge="1">
                    <mxGeometry relative="1" as="geometry">
                        <Array as="points">
                            <mxPoint x="111" y="-540"/>
                            <mxPoint x="76" y="-540"/>
                            <mxPoint x="76" y="-520"/>
                        </Array>
                    </mxGeometry>
                </mxCell>
                <mxCell id="62" value="&lt;b&gt;Demande&lt;br&gt;&lt;/b&gt;&lt;div&gt;&lt;b&gt;d'emprunt &lt;br&gt;&lt;/b&gt;&lt;/div&gt;&lt;div&gt;&lt;b&gt;et retours&lt;br&gt;&lt;/b&gt;&lt;/div&gt;" style="ellipse;shape=cloud;whiteSpace=wrap;html=1;gradientColor=#ffffff;fillColor=#80FF00;strokeColor=#4D9900;" parent="1" vertex="1">
                    <mxGeometry x="55.5" y="-495" width="104.5" height="80" as="geometry"/>
                </mxCell>
                <mxCell id="67" value="&lt;b&gt;Enregistrer un emprunt&lt;/b&gt;" style="rounded=0;whiteSpace=wrap;html=1;fillColor=#66FFFF;gradientColor=#ffffff;strokeColor=#004C99;" parent="1" vertex="1">
                    <mxGeometry x="480" y="-580" width="120" height="50" as="geometry"/>
                </mxCell>
                <mxCell id="68" style="edgeStyle=orthogonalEdgeStyle;orthogonalLoop=1;jettySize=auto;html=1;entryX=0;entryY=0.5;entryDx=0;entryDy=0;startArrow=none;startFill=0;rounded=0;strokeColor=#004C99;" parent="1" source="26" target="67" edge="1">
                    <mxGeometry relative="1" as="geometry"/>
                </mxCell>
                <mxCell id="70" style="edgeStyle=orthogonalEdgeStyle;rounded=0;orthogonalLoop=1;jettySize=auto;html=1;startArrow=none;startFill=0;entryX=0;entryY=0.5;entryDx=0;entryDy=0;strokeColor=#004C99;" parent="1" source="26" target="71" edge="1">
                    <mxGeometry relative="1" as="geometry">
                        <mxPoint x="580" y="-490" as="targetPoint"/>
                        <Array as="points">
                            <mxPoint x="380" y="-520"/>
                            <mxPoint x="380" y="-495"/>
                        </Array>
                    </mxGeometry>
                </mxCell>
                <mxCell id="71" value="&lt;b&gt;Enregistrer un retour&lt;/b&gt;" style="rounded=0;whiteSpace=wrap;html=1;fillColor=#66FFFF;gradientColor=#ffffff;strokeColor=#004C99;" parent="1" vertex="1">
                    <mxGeometry x="480" y="-520" width="120" height="50" as="geometry"/>
                </mxCell>
                <mxCell id="118" style="edgeStyle=orthogonalEdgeStyle;rounded=0;orthogonalLoop=1;jettySize=auto;html=1;entryX=0;entryY=0.5;entryDx=0;entryDy=0;strokeColor=#FF8000;" parent="1" source="72" target="114" edge="1">
                    <mxGeometry relative="1" as="geometry">
                        <Array as="points">
                            <mxPoint x="660" y="-675"/>
                            <mxPoint x="660" y="-695"/>
                        </Array>
                    </mxGeometry>
                </mxCell>
                <mxCell id="134" style="edgeStyle=orthogonalEdgeStyle;rounded=0;orthogonalLoop=1;jettySize=auto;html=1;entryX=0;entryY=0.5;entryDx=0;entryDy=0;strokeColor=#FF8000;" parent="1" source="72" target="116" edge="1">
                    <mxGeometry relative="1" as="geometry">
                        <Array as="points">
                            <mxPoint x="660" y="-675"/>
                            <mxPoint x="660" y="-505"/>
                        </Array>
                    </mxGeometry>
                </mxCell>
                <mxCell id="138" style="edgeStyle=orthogonalEdgeStyle;rounded=0;orthogonalLoop=1;jettySize=auto;html=1;entryX=0;entryY=0.5;entryDx=0;entryDy=0;strokeColor=#FF8000;" parent="1" source="72" target="137" edge="1">
                    <mxGeometry relative="1" as="geometry">
                        <Array as="points">
                            <mxPoint x="660" y="-675"/>
                            <mxPoint x="660" y="-565"/>
                        </Array>
                    </mxGeometry>
                </mxCell>
                <mxCell id="72" value="&lt;b&gt;Gestion du stock&lt;/b&gt;" style="rounded=0;whiteSpace=wrap;html=1;gradientColor=#FFFFFF;fillColor=#FFB366;strokeColor=#FF8000;" parent="1" vertex="1">
                    <mxGeometry x="480" y="-700" width="120" height="50" as="geometry"/>
                </mxCell>
                <mxCell id="124" style="edgeStyle=orthogonalEdgeStyle;rounded=0;orthogonalLoop=1;jettySize=auto;html=1;entryX=0;entryY=0.5;entryDx=0;entryDy=0;strokeColor=#FF8000;" parent="1" source="73" target="117" edge="1">
                    <mxGeometry relative="1" as="geometry"/>
                </mxCell>
                <mxCell id="125" style="edgeStyle=orthogonalEdgeStyle;rounded=0;orthogonalLoop=1;jettySize=auto;html=1;entryX=0;entryY=0.5;entryDx=0;entryDy=0;strokeColor=#FF8000;" parent="1" source="73" target="121" edge="1">
                    <mxGeometry relative="1" as="geometry"/>
                </mxCell>
                <mxCell id="126" style="edgeStyle=orthogonalEdgeStyle;rounded=0;orthogonalLoop=1;jettySize=auto;html=1;entryX=0;entryY=0.5;entryDx=0;entryDy=0;strokeColor=#FF8000;" parent="1" source="73" target="122" edge="1">
                    <mxGeometry relative="1" as="geometry"/>
                </mxCell>
                <mxCell id="73" value="&lt;b&gt;Gestion des séries&lt;/b&gt;" style="rounded=0;whiteSpace=wrap;html=1;fillColor=#FFB366;gradientColor=#FFFFFF;strokeColor=#FF8000;" parent="1" vertex="1">
                    <mxGeometry x="480" y="-640" width="120" height="50" as="geometry"/>
                </mxCell>
                <mxCell id="74" style="edgeStyle=orthogonalEdgeStyle;rounded=0;orthogonalLoop=1;jettySize=auto;html=1;entryX=0;entryY=0.5;entryDx=0;entryDy=0;startArrow=none;startFill=0;strokeColor=#FF8000;" parent="1" source="25" target="72" edge="1">
                    <mxGeometry relative="1" as="geometry"/>
                </mxCell>
                <mxCell id="75" style="edgeStyle=orthogonalEdgeStyle;rounded=0;orthogonalLoop=1;jettySize=auto;html=1;entryX=0;entryY=0.5;entryDx=0;entryDy=0;startArrow=none;startFill=0;strokeColor=#FF8000;" parent="1" source="25" target="73" edge="1">
                    <mxGeometry relative="1" as="geometry"/>
                </mxCell>
                <mxCell id="103" style="edgeStyle=orthogonalEdgeStyle;rounded=0;orthogonalLoop=1;jettySize=auto;html=1;entryX=0;entryY=0.5;entryDx=0;entryDy=0;strokeColor=#990000;" parent="1" source="76" target="101" edge="1">
                    <mxGeometry relative="1" as="geometry"/>
                </mxCell>
                <mxCell id="104" style="edgeStyle=orthogonalEdgeStyle;rounded=0;orthogonalLoop=1;jettySize=auto;html=1;entryX=0;entryY=0.5;entryDx=0;entryDy=0;strokeColor=#990000;" parent="1" source="76" target="102" edge="1">
                    <mxGeometry relative="1" as="geometry"/>
                </mxCell>
                <mxCell id="76" value="&lt;b&gt;Gestion des retards&lt;/b&gt;" style="rounded=0;whiteSpace=wrap;html=1;gradientColor=#FFFFFF;fillColor=#FF0000;strokeColor=#990000;" parent="1" vertex="1">
                    <mxGeometry x="480" y="-820" width="120" height="50" as="geometry"/>
                </mxCell>
                <mxCell id="107" style="edgeStyle=orthogonalEdgeStyle;rounded=0;orthogonalLoop=1;jettySize=auto;html=1;entryX=0;entryY=0.5;entryDx=0;entryDy=0;strokeColor=#990000;" parent="1" source="77" target="105" edge="1">
                    <mxGeometry relative="1" as="geometry">
                        <Array as="points">
                            <mxPoint x="660" y="-735"/>
                            <mxPoint x="660" y="-825"/>
                        </Array>
                    </mxGeometry>
                </mxCell>
                <mxCell id="108" style="edgeStyle=orthogonalEdgeStyle;rounded=0;orthogonalLoop=1;jettySize=auto;html=1;entryX=0;entryY=0.5;entryDx=0;entryDy=0;strokeColor=#990000;" parent="1" source="77" target="106" edge="1">
                    <mxGeometry relative="1" as="geometry">
                        <Array as="points">
                            <mxPoint x="660" y="-735"/>
                            <mxPoint x="660" y="-765"/>
                        </Array>
                    </mxGeometry>
                </mxCell>
                <mxCell id="77" value="&lt;b&gt;Editions de statistiques&lt;/b&gt;" style="rounded=0;whiteSpace=wrap;html=1;gradientColor=#FFFFFF;fillColor=#FF0000;strokeColor=#990000;" parent="1" vertex="1">
                    <mxGeometry x="480" y="-760" width="120" height="50" as="geometry"/>
                </mxCell>
                <mxCell id="78" style="edgeStyle=orthogonalEdgeStyle;rounded=0;orthogonalLoop=1;jettySize=auto;html=1;entryX=0;entryY=0.5;entryDx=0;entryDy=0;startArrow=none;startFill=0;strokeColor=#990000;" parent="1" source="24" target="76" edge="1">
                    <mxGeometry relative="1" as="geometry"/>
                </mxCell>
                <mxCell id="79" style="edgeStyle=orthogonalEdgeStyle;rounded=0;orthogonalLoop=1;jettySize=auto;html=1;entryX=0;entryY=0.5;entryDx=0;entryDy=0;startArrow=none;startFill=0;strokeColor=#990000;" parent="1" source="24" target="77" edge="1">
                    <mxGeometry relative="1" as="geometry"/>
                </mxCell>
                <mxCell id="80" value="" style="endArrow=none;html=1;" parent="1" edge="1">
                    <mxGeometry width="50" height="50" relative="1" as="geometry">
                        <mxPoint x="810" y="-89" as="sourcePoint"/>
                        <mxPoint x="810" y="-1160" as="targetPoint"/>
                    </mxGeometry>
                </mxCell>
                <mxCell id="83" value="&lt;b style=&quot;font-size: 22px ; background-color: rgb(248 , 249 , 250)&quot;&gt;System&lt;/b&gt;" style="shape=process;whiteSpace=wrap;html=1;backgroundOutline=1;labelBackgroundColor=#E6E6E6;fontSize=15;strokeColor=#000000;gradientColor=#4D9900;fillColor=none;" parent="1" vertex="1">
                    <mxGeometry x="160" y="-1120" width="120" height="60" as="geometry"/>
                </mxCell>
                <mxCell id="85" value="&lt;b&gt;Consulter ses Emprunts&lt;/b&gt;" style="rounded=0;whiteSpace=wrap;html=1;gradientColor=#ffffff;fillColor=#80FF00;strokeColor=#4D9900;" parent="1" vertex="1">
                    <mxGeometry x="480" y="-400" width="120" height="50" as="geometry"/>
                </mxCell>
                <mxCell id="86" style="edgeStyle=orthogonalEdgeStyle;rounded=0;orthogonalLoop=1;jettySize=auto;html=1;entryX=0;entryY=0.5;entryDx=0;entryDy=0;strokeColor=#4D9900;" parent="1" source="27" target="85" edge="1">
                    <mxGeometry relative="1" as="geometry"/>
                </mxCell>
                <mxCell id="87" value="&lt;span&gt;Supprimer un compte&lt;br&gt;&lt;/span&gt;" style="rounded=0;whiteSpace=wrap;html=1;gradientColor=#ffffff;fillColor=#B266FF;strokeColor=#B266FF;fontStyle=0" parent="1" vertex="1">
                    <mxGeometry x="680" y="-1110" width="120" height="50" as="geometry"/>
                </mxCell>
                <mxCell id="88" value="&lt;span&gt;Créer un compte&lt;/span&gt;" style="rounded=0;whiteSpace=wrap;html=1;gradientColor=#ffffff;fillColor=#B266FF;strokeColor=#B266FF;fontStyle=0" parent="1" vertex="1">
                    <mxGeometry x="680" y="-1050" width="120" height="50" as="geometry"/>
                </mxCell>
                <mxCell id="152" style="edgeStyle=orthogonalEdgeStyle;rounded=0;orthogonalLoop=1;jettySize=auto;html=1;entryX=0.5;entryY=1;entryDx=0;entryDy=0;strokeColor=#6600CC;" parent="1" source="89" target="90" edge="1">
                    <mxGeometry relative="1" as="geometry"/>
                </mxCell>
                <mxCell id="153" style="edgeStyle=orthogonalEdgeStyle;rounded=0;orthogonalLoop=1;jettySize=auto;html=1;entryX=0.5;entryY=1;entryDx=0;entryDy=0;strokeColor=#9933FF;" parent="1" source="89" target="91" edge="1">
                    <mxGeometry relative="1" as="geometry"/>
                </mxCell>
                <mxCell id="154" value="" style="edgeStyle=orthogonalEdgeStyle;rounded=0;orthogonalLoop=1;jettySize=auto;html=1;strokeColor=#6600CC;" parent="1" source="89" target="91" edge="1">
                    <mxGeometry relative="1" as="geometry"/>
                </mxCell>
                <mxCell id="89" value="&lt;span&gt;Modifier un compte&lt;/span&gt;" style="rounded=0;whiteSpace=wrap;html=1;gradientColor=#ffffff;fillColor=#B266FF;strokeColor=#B266FF;fontStyle=0" parent="1" vertex="1">
                    <mxGeometry x="480" y="-1040" width="120" height="50" as="geometry"/>
                </mxCell>
                <mxCell id="90" value="&lt;span&gt;Modifier les informations&lt;/span&gt;" style="rounded=0;whiteSpace=wrap;html=1;gradientColor=#ffffff;fillColor=#B266FF;strokeColor=#B266FF;fontStyle=0" parent="1" vertex="1">
                    <mxGeometry x="350" y="-1110" width="120" height="50" as="geometry"/>
                </mxCell>
                <mxCell id="91" value="&lt;span&gt;Modifier les droits&lt;/span&gt;" style="rounded=0;whiteSpace=wrap;html=1;gradientColor=#ffffff;fillColor=#B266FF;strokeColor=#B266FF;fontStyle=0" parent="1" vertex="1">
                    <mxGeometry x="480" y="-1110" width="120" height="50" as="geometry"/>
                </mxCell>
                <mxCell id="101" value="&lt;span&gt;Consulter les retards&lt;/span&gt;" style="rounded=0;whiteSpace=wrap;html=1;gradientColor=#FFFFFF;fontStyle=0;fillColor=#FF6666;strokeColor=#FF6666;" parent="1" vertex="1">
                    <mxGeometry x="680" y="-980" width="120" height="50" as="geometry"/>
                </mxCell>
                <mxCell id="102" value="&lt;span&gt;Envoyer des notifications ?&lt;/span&gt;" style="rounded=0;whiteSpace=wrap;html=1;gradientColor=#FFFFFF;fontStyle=0;fillColor=#FF6666;strokeColor=#FF6666;" parent="1" vertex="1">
                    <mxGeometry x="680" y="-920" width="120" height="50" as="geometry"/>
                </mxCell>
                <mxCell id="105" value="&lt;span&gt;Selectionner des statistiques&lt;/span&gt;" style="rounded=0;whiteSpace=wrap;html=1;gradientColor=#FFFFFF;fontStyle=0;fillColor=#FF6666;strokeColor=#FF6666;" parent="1" vertex="1">
                    <mxGeometry x="680" y="-850" width="120" height="50" as="geometry"/>
                </mxCell>
                <mxCell id="106" value="&lt;span&gt;Exporter la selection&lt;/span&gt;" style="rounded=0;whiteSpace=wrap;html=1;gradientColor=#FFFFFF;fontStyle=0;fillColor=#FF6666;strokeColor=#FF6666;" parent="1" vertex="1">
                    <mxGeometry x="680" y="-790" width="120" height="50" as="geometry"/>
                </mxCell>
                <mxCell id="112" style="edgeStyle=orthogonalEdgeStyle;rounded=0;orthogonalLoop=1;jettySize=auto;html=1;entryX=0.5;entryY=1;entryDx=0;entryDy=0;strokeColor=#6600CC;" parent="1" target="89" edge="1">
                    <mxGeometry relative="1" as="geometry">
                        <mxPoint x="540" y="-905" as="sourcePoint"/>
                        <mxPoint x="540" y="-950" as="targetPoint"/>
                    </mxGeometry>
                </mxCell>
                <mxCell id="136" style="edgeStyle=orthogonalEdgeStyle;rounded=0;orthogonalLoop=1;jettySize=auto;html=1;entryX=0.5;entryY=0;entryDx=0;entryDy=0;strokeColor=#FF8000;" parent="1" source="114" target="115" edge="1">
                    <mxGeometry relative="1" as="geometry"/>
                </mxCell>
                <mxCell id="114" value="&lt;span&gt;Ajouter une ref&lt;/span&gt;" style="rounded=0;whiteSpace=wrap;html=1;gradientColor=#FFFFFF;fontStyle=0;fillColor=#FFCC99;strokeColor=#FFCC99;" parent="1" vertex="1">
                    <mxGeometry x="680" y="-720" width="120" height="50" as="geometry"/>
                </mxCell>
                <mxCell id="115" value="&lt;span&gt;Générer un code&lt;/span&gt;" style="rounded=0;whiteSpace=wrap;html=1;gradientColor=#FFFFFF;fontStyle=0;fillColor=#FFCC99;strokeColor=#FFCC99;" parent="1" vertex="1">
                    <mxGeometry x="680" y="-650" width="120" height="50" as="geometry"/>
                </mxCell>
                <mxCell id="128" style="edgeStyle=orthogonalEdgeStyle;rounded=0;orthogonalLoop=1;jettySize=auto;html=1;entryX=0.5;entryY=0;entryDx=0;entryDy=0;strokeColor=#FF8000;" parent="1" source="116" target="127" edge="1">
                    <mxGeometry relative="1" as="geometry"/>
                </mxCell>
                <mxCell id="116" value="Modifier une ref" style="rounded=0;whiteSpace=wrap;html=1;gradientColor=#FFFFFF;fontStyle=0;fillColor=#FFCC99;strokeColor=#FFCC99;" parent="1" vertex="1">
                    <mxGeometry x="680" y="-530" width="120" height="50" as="geometry"/>
                </mxCell>
                <mxCell id="117" value="&lt;span&gt;Créer une série&lt;/span&gt;" style="rounded=0;whiteSpace=wrap;html=1;gradientColor=#FFFFFF;fontStyle=0;fillColor=#FFCC99;strokeColor=#FFCC99;" parent="1" vertex="1">
                    <mxGeometry x="680" y="-255" width="120" height="50" as="geometry"/>
                </mxCell>
                <mxCell id="133" style="edgeStyle=orthogonalEdgeStyle;rounded=0;orthogonalLoop=1;jettySize=auto;html=1;entryX=0.5;entryY=1;entryDx=0;entryDy=0;strokeColor=#FF8000;" parent="1" source="121" target="130" edge="1">
                    <mxGeometry relative="1" as="geometry"/>
                </mxCell>
                <mxCell id="121" value="&lt;span&gt;Modifier une série&lt;/span&gt;" style="rounded=0;whiteSpace=wrap;html=1;gradientColor=#FFFFFF;fontStyle=0;fillColor=#FFCC99;strokeColor=#FFCC99;" parent="1" vertex="1">
                    <mxGeometry x="680" y="-315" width="120" height="50" as="geometry"/>
                </mxCell>
                <mxCell id="122" value="&lt;span&gt;Supprimer une série&lt;/span&gt;" style="rounded=0;whiteSpace=wrap;html=1;gradientColor=#FFFFFF;fontStyle=0;fillColor=#FFCC99;strokeColor=#FFCC99;" parent="1" vertex="1">
                    <mxGeometry x="680" y="-190" width="120" height="50" as="geometry"/>
                </mxCell>
                <mxCell id="131" style="edgeStyle=orthogonalEdgeStyle;rounded=0;orthogonalLoop=1;jettySize=auto;html=1;entryX=0.5;entryY=0;entryDx=0;entryDy=0;strokeColor=#FF8000;" parent="1" source="127" target="130" edge="1">
                    <mxGeometry relative="1" as="geometry"/>
                </mxCell>
                <mxCell id="127" value="Ajouter une ref dans une série" style="rounded=0;whiteSpace=wrap;html=1;gradientColor=#FFFFFF;fontStyle=0;fillColor=#FFCC99;strokeColor=#FFCC99;" parent="1" vertex="1">
                    <mxGeometry x="680" y="-460" width="120" height="50" as="geometry"/>
                </mxCell>
                <mxCell id="132" style="edgeStyle=orthogonalEdgeStyle;rounded=0;orthogonalLoop=1;jettySize=auto;html=1;entryX=0.5;entryY=1;entryDx=0;entryDy=0;strokeColor=#FF8000;" parent="1" source="130" target="127" edge="1">
                    <mxGeometry relative="1" as="geometry"/>
                </mxCell>
                <mxCell id="130" value="Ajouter une série dans une ref" style="rounded=0;whiteSpace=wrap;html=1;gradientColor=#FFFFFF;fontStyle=0;fillColor=#FFCC99;strokeColor=#FFCC99;" parent="1" vertex="1">
                    <mxGeometry x="680" y="-380" width="120" height="50" as="geometry"/>
                </mxCell>
                <mxCell id="137" value="&lt;span&gt;Supprimer une série&lt;/span&gt;" style="rounded=0;whiteSpace=wrap;html=1;gradientColor=#FFFFFF;fontStyle=0;fillColor=#FFCC99;strokeColor=#FFCC99;" parent="1" vertex="1">
                    <mxGeometry x="680" y="-590" width="120" height="50" as="geometry"/>
                </mxCell>
                <mxCell id="139" value="&lt;b&gt;Régénérer un MDP&lt;/b&gt;" style="rounded=0;whiteSpace=wrap;html=1;gradientColor=#ffffff;fillColor=#E6E6E6;" parent="1" vertex="1">
                    <mxGeometry x="490" y="-265" width="120" height="50" as="geometry"/>
                </mxCell>
                <mxCell id="140" value="&lt;b&gt;Consulter les emprunts d'un adhérent&lt;/b&gt;" style="rounded=0;whiteSpace=wrap;html=1;fillColor=#66FFFF;gradientColor=#ffffff;strokeColor=#004C99;" parent="1" vertex="1">
                    <mxGeometry x="480" y="-460" width="120" height="50" as="geometry"/>
                </mxCell>
                <mxCell id="141" style="edgeStyle=orthogonalEdgeStyle;rounded=0;orthogonalLoop=1;jettySize=auto;html=1;entryX=0;entryY=0.5;entryDx=0;entryDy=0;strokeColor=#004C99;" parent="1" source="26" target="140" edge="1">
                    <mxGeometry relative="1" as="geometry"/>
                </mxCell>
                <mxCell id="142" style="edgeStyle=orthogonalEdgeStyle;rounded=0;orthogonalLoop=1;jettySize=auto;html=1;entryX=0.5;entryY=0;entryDx=0;entryDy=0;" parent="1" source="23" target="139" edge="1">
                    <mxGeometry relative="1" as="geometry">
                        <Array as="points">
                            <mxPoint x="350" y="-880"/>
                            <mxPoint x="350" y="-320"/>
                            <mxPoint x="550" y="-320"/>
                        </Array>
                    </mxGeometry>
                </mxCell>
                <mxCell id="143" style="edgeStyle=orthogonalEdgeStyle;rounded=0;orthogonalLoop=1;jettySize=auto;html=1;entryX=0.5;entryY=0;entryDx=0;entryDy=0;" parent="1" source="24" target="139" edge="1">
                    <mxGeometry relative="1" as="geometry">
                        <Array as="points">
                            <mxPoint x="350" y="-760"/>
                            <mxPoint x="350" y="-320"/>
                            <mxPoint x="550" y="-320"/>
                        </Array>
                    </mxGeometry>
                </mxCell>
                <mxCell id="144" style="edgeStyle=orthogonalEdgeStyle;rounded=0;orthogonalLoop=1;jettySize=auto;html=1;entryX=0.5;entryY=0;entryDx=0;entryDy=0;" parent="1" source="25" target="139" edge="1">
                    <mxGeometry relative="1" as="geometry">
                        <Array as="points">
                            <mxPoint x="350" y="-640"/>
                            <mxPoint x="350" y="-320"/>
                            <mxPoint x="550" y="-320"/>
                        </Array>
                    </mxGeometry>
                </mxCell>
                <mxCell id="145" style="edgeStyle=orthogonalEdgeStyle;rounded=0;orthogonalLoop=1;jettySize=auto;html=1;entryX=0.5;entryY=0;entryDx=0;entryDy=0;" parent="1" source="26" target="139" edge="1">
                    <mxGeometry relative="1" as="geometry">
                        <Array as="points">
                            <mxPoint x="350" y="-520"/>
                            <mxPoint x="350" y="-320"/>
                            <mxPoint x="550" y="-320"/>
                        </Array>
                    </mxGeometry>
                </mxCell>
                <mxCell id="146" style="edgeStyle=orthogonalEdgeStyle;rounded=0;orthogonalLoop=1;jettySize=auto;html=1;entryX=0.5;entryY=0;entryDx=0;entryDy=0;" parent="1" source="27" target="139" edge="1">
                    <mxGeometry relative="1" as="geometry">
                        <Array as="points">
                            <mxPoint x="350" y="-400"/>
                            <mxPoint x="350" y="-320"/>
                            <mxPoint x="550" y="-320"/>
                        </Array>
                    </mxGeometry>
                </mxCell>
                <mxCell id="156" style="edgeStyle=orthogonalEdgeStyle;rounded=0;orthogonalLoop=1;jettySize=auto;html=1;entryX=0.5;entryY=0;entryDx=0;entryDy=0;" parent="1" source="149" target="155" edge="1">
                    <mxGeometry relative="1" as="geometry"/>
                </mxCell>
                <mxCell id="149" value="&lt;b&gt;Consulter le catalogue&lt;/b&gt;" style="rounded=0;whiteSpace=wrap;html=1;gradientColor=#ffffff;fillColor=#E6E6E6;" parent="1" vertex="1">
                    <mxGeometry x="350" y="-265" width="120" height="50" as="geometry"/>
                </mxCell>
                <mxCell id="150" style="edgeStyle=orthogonalEdgeStyle;rounded=0;orthogonalLoop=1;jettySize=auto;html=1;entryX=0.5;entryY=0;entryDx=0;entryDy=0;strokeColor=#000000;" parent="1" source="23" target="149" edge="1">
                    <mxGeometry relative="1" as="geometry">
                        <Array as="points">
                            <mxPoint x="350" y="-880"/>
                            <mxPoint x="350" y="-320"/>
                            <mxPoint x="410" y="-320"/>
                        </Array>
                    </mxGeometry>
                </mxCell>
                <mxCell id="155" value="&lt;span&gt;Consulter une ref&lt;/span&gt;" style="rounded=0;whiteSpace=wrap;html=1;gradientColor=#ffffff;fillColor=#E6E6E6;strokeColor=#666666;fontStyle=0" parent="1" vertex="1">
                    <mxGeometry x="350" y="-190" width="120" height="50" as="geometry"/>
                </mxCell>
            </root>
        </mxGraphModel>
    </diagram>
</mxfile>